<?xml version="1.0" encoding="utf-8"?>
<!-- Generator: Adobe Illustrator 28.0.0, SVG Export Plug-In . SVG Version: 6.00 Build 0)  -->
<svg version="1.1" id="Layer_1" xmlns="http://www.w3.org/2000/svg" xmlns:xlink="http://www.w3.org/1999/xlink" x="0px" y="0px"
	 viewBox="0 0 631.89 301.28" style="enable-background:new 0 0 631.89 301.28;" xml:space="preserve">
<g>
	<g>
		<path d="M229.1,149.21c-9.75,0-17.66,7.91-17.66,17.66c0,9.75,7.91,17.66,17.66,17.66c9.75,0,17.66-7.91,17.66-17.66
			C246.76,157.11,238.86,149.21,229.1,149.21z M229.06,175.43c-4.88,0-8.83-3.95-8.83-8.83c0-4.88,3.95-8.83,8.83-8.83
			c4.88,0,8.83,3.95,8.83,8.83C237.89,171.47,233.94,175.43,229.06,175.43z"/>
		<path d="M228.93,162.32c-2.35,0-4.26,1.91-4.26,4.26s1.91,4.26,4.26,4.26s4.26-1.91,4.26-4.26S231.28,162.32,228.93,162.32z"/>
		<path d="M474.58,184.53c9.75,0,17.66-7.91,17.66-17.66c0-9.75-7.91-17.66-17.66-17.66c-9.75,0-17.66,7.91-17.66,17.66
			C456.92,176.62,464.83,184.53,474.58,184.53z M474.53,157.77c4.88,0,8.83,3.95,8.83,8.83c0,4.88-3.95,8.83-8.83,8.83
			c-4.88,0-8.83-3.95-8.83-8.83C465.7,161.72,469.66,157.77,474.53,157.77z"/>
		<path d="M474.4,170.84c2.35,0,4.26-1.91,4.26-4.26s-1.91-4.26-4.26-4.26s-4.26,1.91-4.26,4.26S472.05,170.84,474.4,170.84z"/>
		<path d="M178.97,184.53c9.75,0,17.66-7.91,17.66-17.66c0-9.75-7.91-17.66-17.66-17.66c-9.75,0-17.66,7.91-17.66,17.66
			C161.31,176.62,169.21,184.53,178.97,184.53z M178.92,157.77c4.88,0,8.83,3.95,8.83,8.83c0,4.88-3.95,8.83-8.83,8.83
			c-4.88,0-8.83-3.95-8.83-8.83C170.09,161.72,174.04,157.77,178.92,157.77z"/>
		<path d="M178.79,170.84c2.35,0,4.26-1.91,4.26-4.26s-1.91-4.26-4.26-4.26s-4.26,1.91-4.26,4.26S176.44,170.84,178.79,170.84z"/>
		<path d="M212.25,236.21c-2.78,1.97-5.28,3.5-7.5,4.59c-2.22,1.09-4.48,1.63-6.79,1.63c-1.37,0-2.45-0.35-3.26-1.04
			c-0.8-0.69-1.2-1.63-1.2-2.81v-1.63c4.61-1.63,8.6-3.49,11.95-5.59c3.36-2.1,5.04-4.8,5.04-8.1c0-2.27-1.46-3.4-4.39-3.4
			c-5,0-9.48,1.94-13.45,5.81c-3.96,3.87-5.94,8.45-5.94,13.72c0,6.21,2.69,9.32,8.07,9.32c2.12,0,4.29-0.58,6.51-1.74
			c2.22-1.16,5.83-3.69,10.83-7.58L212.25,236.21z M198.7,226.92c1.91-1.85,3.6-2.77,5.06-2.77c0.57,0,0.85,0.3,0.85,0.89
			c0,1.09-1.03,2.45-3.08,4.11c-2.05,1.65-4.45,3.07-7.18,4.25C195.34,230.93,196.79,228.77,198.7,226.92z"/>
		<path d="M545.45,241.87c-1.3,0.67-2.8,1-4.49,1l-1.91-0.15c2.17-1.63,4.28-3.44,6.33-5.44c2.05-2,3.08-4.65,3.08-7.95
			c0-0.99-0.26-2.39-0.78-4.22c-0.52-1.82-0.78-3.21-0.78-4.14c-0.09-1.04-0.29-1.74-0.6-2.11c-0.31-0.37-0.88-0.55-1.73-0.55
			c-1.27,0-2.24,0.39-2.9,1.18c-0.66,0.79-1.23,2.24-1.7,4.37c-2.17,2.37-4.21,4.39-6.12,6.07c-1.91,1.68-4.47,3.77-7.68,6.29
			c-2.78,2.17-4.99,3.67-6.62,4.51c-1.63,0.84-3.15,1.26-4.56,1.26c-2.64,0-3.96-1.58-3.96-4.72l0.35-3.63
			c1.93-1.96,3.96-4.07,6.09-6.31c2.12-2.23,4.03-4.49,5.73-6.76c1.7-2.26,2.9-4.32,3.61-6.17c0.71-1.85,1.26-3.5,1.66-4.98
			c0.4-1.48,0.63-3.11,0.67-4.87c0-0.64-0.15-1.17-0.46-1.59c-0.31-0.42-0.67-0.63-1.1-0.63c-1.18,0-3.51,1.78-7.01,5.31
			c-3.49,3.55-6.32,6.88-8.49,10.01c-2.17,3.13-3.97,6.54-5.41,10.23c-1.44,3.69-2.16,7.56-2.16,11.59c0,3.06,0.54,5.29,1.63,6.72
			c1.09,1.43,2.67,2.15,4.74,2.15c1.93,0,4.02-0.75,6.26-2.26c2.24-1.5,5.22-3.71,8.95-6.62l0-0.05c2.57-2,4.89-3.91,6.97-5.72
			c2.1-1.83,4.52-4.04,7.25-6.66c0.14,1.18,0.26,2.19,0.35,3.03c0.09,0.84,0.14,1.73,0.14,2.66c0,3.5-1.67,6.29-5.02,8.36
			c-1.04-0.89-1.95-1.54-2.72-1.96c-0.78-0.42-1.59-0.63-2.44-0.63c-1.08,0-1.98,0.35-2.69,1.04c-0.71,0.69-1.06,1.55-1.06,2.59
			c0,1.83,0.97,3.4,2.9,4.74c1.93,1.33,4.15,2,6.65,2c2.92,0,6.02-1.11,9.27-3.33c2.64-2.02,5.28-4.04,7.93-6.07l-0.07-1.04
			l0.14-2.22C549.49,239.31,546.75,241.2,545.45,241.87z M517.85,217.6c1.39-2.15,3.39-4.35,5.98-6.62
			c-1.18,2.96-2.65,5.65-4.42,8.06c-1.77,2.42-3.95,5.03-6.55,7.84C514.8,222.84,516.46,219.74,517.85,217.6z"/>
		<path d="M186.74,237.61c0.02-0.39,0.06-0.86,0.11-1.41c-3.68,2.61-6.32,4.43-7.93,5.44c-1.6,1.01-3.07,1.52-4.39,1.52
			c-1.46,0-2.19-1.09-2.19-3.26c0-1.43,0.58-3.35,1.73-5.77c1.16-2.42,2.77-5.03,4.85-7.84c3.96,0,6.32-0.44,7.08-1.34
			c0.76-0.89,1.72-2.49,2.9-4.77l1.49-2.76c-0.57-0.09-1.14-0.16-1.73-0.25c-0.59-0.09-1.43-0.12-2.51-0.12
			c0.57-0.79,1.17-1.65,1.8-2.59c0.64-0.94,0.96-1.63,0.96-2.07c0-0.99-0.78-1.48-2.34-1.48c-1.46,0-2.65,0.38-3.57,1.15
			c-0.92,0.76-2.28,2.55-4.07,5.36c-4.25,0-6.9,0.65-7.96,1.96c-1.06,1.31-2.63,3.69-4.71,7.14c0.57-0.1,1.26-0.22,2.09-0.37
			c0.83-0.15,1.69-0.22,2.58-0.22l2.05,0.07c-1.65,2.47-2.94,4.18-3.86,5.14c-0.92,0.96-2.89,2.65-5.91,5.07
			c-0.07,0.46-0.09,0.88-0.11,1.3c0-0.04,0-0.11,0-0.15c0.02-0.37,0.06-0.75,0.11-1.15c-1.46,1.04-2.61,1.73-3.43,2.07
			c-0.83,0.35-1.73,0.52-2.72,0.52l-1.42-0.07c2.26-4.09,3.4-7.35,3.4-9.77c0-1.23-0.18-2.15-0.53-2.74c-0.35-0.59-1-1.06-1.95-1.41
			c1.09-0.54,1.63-1.21,1.63-2c0-0.74-0.37-1.36-1.1-1.85c-0.73-0.49-1.64-0.74-2.72-0.74c-2.5,0-5.11,0.64-7.82,1.92
			c-2.71,1.28-5.02,2.87-6.93,4.77c-1.91,1.9-3.17,3.82-3.79,5.77c-0.61,1.95-0.92,4.2-0.92,6.77c0.33,2.81,1.16,4.98,2.48,6.51
			c1.32,1.53,3,2.29,5.02,2.29c3.26,0,6.72-1.78,10.4-5.33h2.05c1.23,0,2.45-0.26,3.68-0.78c1.23-0.52,2.74-1.42,4.53-2.7v-0.07
			c1.6-1.23,2.59-2,2.97-2.29c0.38-0.3,0.94-0.79,1.7-1.48c-1.98,3.9-2.97,7.03-2.97,9.4c0,1.48,0.39,2.68,1.17,3.59
			c0.78,0.91,1.83,1.37,3.15,1.37c2.88,0,6.04-1.36,9.48-4.07c3.44-2.71,6.16-4.88,8.14-6.51v-0.81
			C186.71,238.33,186.72,238.01,186.74,237.61z M148.42,239.98c-1.08,0.99-2.03,1.65-2.83,2c-0.8,0.35-1.77,0.52-2.9,0.52
			c-1.7,0-2.55-0.74-2.55-2.22c0-2.86,0.9-5.11,2.69-6.73c1.79-1.63,4.46-3.43,8-5.4c-1.23,2.22-2.06,3.92-2.51,5.11
			c-0.45,1.18-0.67,2.32-0.67,3.4C147.64,237.69,147.9,238.79,148.42,239.98z"/>
		<path d="M296.32,207.42l-2.97,0.3l4.88-2.29c1.13-0.54,1.7-1.13,1.7-1.78c0-0.69-0.66-1.85-1.98-3.48
			c-1.32-1.63-2.83-2.44-4.53-2.44c-1.56,0-3.8,0.59-6.72,1.78c-2.92,1.18-6.69,3.23-11.29,6.14c-4.6,2.91-8.81,7.02-12.63,12.32
			c-3.82,5.3-5.73,10.35-5.73,15.13c0,3.4,0.7,6.34,2.09,8.8c1.39,2.47,2.84,4.13,4.35,4.99c1.51,0.86,3.47,1.29,5.87,1.29
			c4.2,0,8.68-1.34,13.45-4.03c4.76-2.69,9.13-7.02,13.09-12.98c3.96-5.97,5.94-11.52,5.94-16.65
			C301.84,209.79,300,207.42,296.32,207.42z M291.9,224.63c-2.57,4.46-6.26,8.6-11.07,12.39c-4.81,3.8-9.25,5.7-13.3,5.7
			c-2.41,0-3.61-1.63-3.61-4.88c0-2.07,0.59-4.35,1.77-6.84c1.18-2.49,3.26-5.39,6.23-8.69c0,1.33,0.31,2,0.92,2
			c0.52,0,1.53-1.07,3.04-3.22c1.51-2.15,4.05-4.33,7.61-6.55c3.56-2.22,6.69-3.33,9.38-3.33c1.93,0,2.9,1.26,2.9,3.77
			C295.75,216.94,294.47,220.16,291.9,224.63z"/>
		<path d="M504.65,236.21c-2.78,1.97-5.28,3.5-7.5,4.59c-2.22,1.09-4.48,1.63-6.79,1.63c-1.37,0-2.45-0.35-3.26-1.04
			c-0.8-0.69-1.2-1.63-1.2-2.81v-1.63c4.61-1.63,8.6-3.49,11.95-5.59c3.36-2.1,5.04-4.8,5.04-8.1c0-2.27-1.46-3.4-4.39-3.4
			c-5,0-9.48,1.94-13.45,5.81c-3.96,3.87-5.94,8.45-5.94,13.72c0,6.21,2.69,9.32,8.07,9.32c2.12,0,4.29-0.58,6.51-1.74
			c2.22-1.16,5.83-3.69,10.83-7.58L504.65,236.21z M491.1,226.92c1.91-1.85,3.6-2.77,5.06-2.77c0.57,0,0.85,0.3,0.85,0.89
			c0,1.09-1.03,2.45-3.08,4.11c-2.05,1.65-4.45,3.07-7.18,4.25C487.74,230.93,489.19,228.77,491.1,226.92z"/>
		<path d="M235.18,202.32c-1.18,0-3.51,1.78-7.01,5.31c-3.49,3.55-6.32,6.88-8.49,10.01c-2.17,3.13-3.97,6.54-5.41,10.23
			c-1.44,3.69-2.16,7.56-2.16,11.59c0,3.06,0.54,5.29,1.63,6.72c1.09,1.43,2.67,2.15,4.74,2.15c1.93,0,4.02-0.75,6.26-2.26
			c2.24-1.5,5.22-3.71,8.95-6.62l-0.07-1.04l0.14-2.22c-2.78,2.17-4.99,3.67-6.62,4.51c-1.63,0.84-3.15,1.26-4.56,1.26
			c-2.64,0-3.96-1.58-3.96-4.72l0.35-3.63c1.93-1.96,3.96-4.07,6.09-6.31c2.12-2.23,4.03-4.49,5.73-6.76
			c1.7-2.26,2.9-4.32,3.61-6.17c0.71-1.85,1.26-3.5,1.66-4.98c0.4-1.48,0.63-3.11,0.67-4.87c0-0.64-0.15-1.17-0.46-1.59
			C235.97,202.53,235.6,202.32,235.18,202.32z M227.01,219.04c-1.77,2.42-3.95,5.03-6.55,7.84c1.93-4.04,3.6-7.14,4.99-9.29
			c1.39-2.15,3.39-4.35,5.98-6.62C230.25,213.94,228.78,216.62,227.01,219.04z"/>
		<path d="M327.46,239.79c-1.37,0.72-2.52,1.07-3.47,1.07c-1.37,0-2.05-0.64-2.05-1.92c0-1.48,0.94-3.4,2.83-5.77
			c1.89-2.37,3.8-4.76,5.73-7.18c0-0.15-0.13-0.67-0.39-1.55c-0.26-0.89-0.51-1.8-0.74-2.74c-0.24-0.94-0.64-1.41-1.2-1.41
			c-1.42,0-4.71,2.12-9.87,6.36c-5.17,4.24-8.28,7.04-9.34,8.4c-1.06,1.36-1.69,2.12-1.88,2.29s-0.45,0.26-0.78,0.26
			c-0.47,0-0.71-0.3-0.71-0.89c0-0.99,1.47-2.97,4.42-5.96c2.95-2.98,4.42-4.99,4.42-6.03c0-0.59-0.28-0.99-0.85-1.18
			c-0.57-0.2-1.6-0.3-3.11-0.3c-2.22,0-4.58,1.84-7.08,5.51s-3.75,6.89-3.75,9.66v1.04c0,2.91,0.27,4.92,0.81,6.03
			c0.54,1.11,1.47,1.66,2.8,1.66c0.71,0,1.49-0.37,2.34-1.11c0.85-0.74,2.04-2.12,3.57-4.14c1.53-2.02,3.16-3.88,4.88-5.59
			c1.72-1.7,3.67-3.44,5.84-5.22c-0.99,1.52-2.25,3.5-3.79,5.93c-1.53,2.43-2.3,4.7-2.3,6.82c0,1.27,0.37,2.37,1.1,3.27
			c0.73,0.91,1.62,1.37,2.65,1.37c1.98,0,3.94-0.67,5.87-1.99c1.93-1.32,5.05-3.67,9.34-7.07l-0.07-1.02l0.14-2.21
			C330.62,237.88,328.83,239.08,327.46,239.79z"/>
		<path d="M426.6,206.1c0-1.04-0.21-1.96-0.64-2.79c-0.42-0.81-0.9-1.22-1.42-1.22c-0.52,0-1.55,1-3.08,3.01
			c-1.53,2.01-2.3,3.55-2.3,4.64c0,0.7,0.17,1.59,0.5,2.68c-2.26,4.81-4.79,9.16-7.57,13.07c-2.78,3.91-5.6,7.13-8.46,9.66
			c-2.85,2.53-4.65,4.07-5.38,4.61c-0.73,0.54-1.33,0.81-1.8,0.81c-0.75,0-1.13-0.39-1.13-1.18c0-1.94,1.14-4.85,3.43-8.73
			c2.29-3.88,5.34-8.73,9.16-14.53c3.82-5.78,5.73-9,5.73-9.66c0-0.44-0.27-1.34-0.81-2.7c-0.54-1.37-1.21-2.05-2.02-2.05
			c-0.76,0-1.69,0.43-2.8,1.29c-1.11,0.86-2.35,2.05-3.72,3.55c-1.37,1.5-4.2,4.75-8.49,9.73c-4.29,4.98-7.58,8.62-9.87,10.91
			c-2.29,2.29-4.69,4.56-7.22,6.81c-2.52,2.24-4.03,3.58-4.53,4c-0.5,0.42-0.88,0.63-1.17,0.63c-0.61,0-0.92-0.37-0.92-1.11
			c0-0.25,1.71-2.54,5.13-6.88s6.86-8.67,10.33-12.98s5.2-7.81,5.2-10.47c0-6.36-2.59-9.54-7.78-9.54c-2.64,0-5.11,0.36-7.39,1.07
			s-5.81,1.96-10.58,3.74c0.57-0.64,1.1-1.28,1.59-1.92c0.5-0.64,0.74-1.11,0.74-1.41c0-0.39-0.19-0.59-0.57-0.59
			c-0.42,0-1.2,0.55-2.34,1.66c-1.13,1.11-3.3,2.95-6.51,5.51c-2.41,2.56-3.61,5.8-3.61,9.69c0,1.38,0.54,2.07,1.63,2.07
			c1.04,0,2.45-0.49,4.25-1.48c1.79-0.99,3.63-2.01,5.52-3.07c1.89-1.06,4.58-2.24,8.07-3.55c3.49-1.31,6.04-1.96,7.64-1.96
			c1.37,0,2.05,0.67,2.05,2c0,0.79-0.5,1.75-1.49,2.89l-6.72,7.55c-2.97,3.35-6.12,7.05-9.45,11.1c-3.33,4.04-4.99,7.18-4.99,9.4
			c0,1.58,0.66,3.42,1.98,5.51c1.32,2.1,2.69,3.14,4.1,3.14c0.75,0,1.49-0.2,2.19-0.59c0.71-0.39,2.16-1.59,4.35-3.59
			c2.19-2,4.1-3.79,5.73-5.36c1.63-1.58,3.18-3.17,4.67-4.77c1.49-1.6,4.02-4.43,7.61-8.47c-1.89,5.17-3.08,8.63-3.57,10.38
			c-0.5,1.76-0.74,3.44-0.74,5.03c0,1.84,0.86,3.53,2.58,5.07c1.72,1.54,3.39,2.31,4.99,2.31c0.71,0,2.1-0.58,4.17-1.74
			c2.08-1.17,4.81-3.55,8.21-7.16c3.4-3.61,6.32-7.39,8.77-11.32c2.45-3.93,4.52-8.11,6.19-12.54
			C425.76,211.8,426.6,208.44,426.6,206.1z"/>
		<path d="M453.77,236.21c-2.55,1.87-4.48,3.16-5.8,3.85c-1.32,0.69-2.48,1.04-3.47,1.04c-1.08,0-1.63-0.57-1.63-1.7
			c0-1.09,1.31-3.05,3.93-5.88c2.62-2.84,3.93-4.82,3.93-5.96c0-0.84-0.37-1.62-1.1-2.33c-0.73-0.72-1.5-1.07-2.3-1.07
			c-1.32,0-3.21,0.85-5.66,2.55c-2.45,1.7-4.99,3.69-7.61,5.96c-2.62,2.27-4.92,4.27-6.9,5.99v-2.89
			c3.31-3.45,6.94-7.32,10.85-11.62c3.93-4.29,7.63-8.64,11.11-13.06c3.48-4.41,5.21-7.39,5.21-8.92c0-0.64-0.28-1.15-0.85-1.52
			c-0.57-0.37-1.16-0.55-1.77-0.55c-1.46,0-4.2,1.94-8.21,5.81c-4.01,3.87-7.51,7.83-10.51,11.88c-3,4.04-5.51,7.62-7.54,10.73
			c-2.03,3.11-3.04,6.73-3.04,10.88c0,2.96,0.19,5.01,0.57,6.14c0.38,1.13,1.01,1.7,1.91,1.7c0.57,0,2.25-1.64,5.06-4.92
			c2.81-3.28,7.11-7.07,12.91-11.36c-0.61,0.89-2.01,2.85-4.18,5.89c-2.17,3.05-3.26,5.7-3.26,7.95c0,0.99,0.31,1.85,0.92,2.58
			c0.61,0.74,1.32,1.11,2.12,1.11c1.37,0,3.21-0.7,5.52-2.1c2.31-1.39,5.54-3.74,9.69-7.03L453.77,236.21z"/>
		<path d="M471.75,240.79c-2.22,1.09-4.48,1.63-6.79,1.63c-1.37,0-2.45-0.35-3.26-1.04c-0.8-0.69-1.2-1.63-1.2-2.81v-1.63
			c4.61-1.63,8.6-3.49,11.95-5.59c3.36-2.1,5.04-4.8,5.04-8.1c0-2.27-1.46-3.4-4.39-3.4c-5,0-9.48,1.94-13.45,5.81
			c-3.96,3.87-5.94,8.45-5.94,13.72c0,6.21,2.69,9.32,8.07,9.32c2.12,0,4.29-0.58,6.51-1.74c2.22-1.16,5.83-3.69,10.83-7.58
			l0.14-3.18C476.46,238.18,473.96,239.71,471.75,240.79z M465.7,226.92c1.91-1.85,3.6-2.77,5.06-2.77c0.57,0,0.85,0.3,0.85,0.89
			c0,1.09-1.03,2.45-3.08,4.11c-2.05,1.65-4.45,3.07-7.18,4.25C462.33,230.93,463.79,228.77,465.7,226.92z"/>
		<path d="M131.93,224.39c-0.94-0.16-2.88-0.25-5.8-0.25l7.71-9.66c2.64-3.32,4.26-5.51,4.85-6.6c0.59-1.1,0.88-2.38,0.88-3.87
			c0-0.44-0.13-0.85-0.39-1.22c-0.26-0.37-0.55-0.56-0.88-0.56c-0.38,0-0.9,0.33-1.56,1c-0.66,0.67-1.99,2.26-4,4.77
			c-2.01,2.52-4.1,5.22-6.3,8.1c-2.19,2.89-4.21,5.56-6.05,8.03c-2.26,0-4.19,0.14-5.77,0.41c-1.58,0.27-3.27,0.56-5.06,0.85
			l8.07-8.73c2.69-2.96,4.53-5.3,5.52-7.03c0.99-1.73,1.49-3.43,1.49-5.11c0-2.47-0.71-4.28-2.12-5.44
			c-1.42-1.16-3.33-1.74-5.73-1.74c-5,0-10,0.72-15,2.15c-5,1.43-9.71,3.06-14.12,4.88s-7.18,3.26-8.31,4.29
			c-1.13,1.04-1.99,2.53-2.58,4.48c-0.59,1.95-0.88,3.39-0.88,4.33c0,0.99,0.19,1.8,0.57,2.44c0.38,0.64,0.85,0.96,1.42,0.96
			c0.85,0,1.96-0.37,3.33-1.11c1.37-0.74,2.85-1.6,4.46-2.59c1.32-0.49,2.74-1.05,4.25-1.66c1.51-0.62,2.26-1.27,2.26-1.96
			c0-0.39-0.33-0.74-0.99-1.04c4.58-2.22,8.88-4.02,12.91-5.4c4.03-1.38,7.8-2.07,11.29-2.07c1.6,0,2.41,0.44,2.41,1.33
			c0,0.94-1.04,2.66-3.1,5.19l-7.16,8.27l-6.89,7.23c-2.63,0.65-5.13,1.26-7.49,1.84c-2.36,0.57-3.7,0.85-4.02,0.85
			c-0.19,0-0.5-0.07-0.92-0.22c-0.42-0.15-0.73-0.22-0.92-0.22c-0.14,0-0.41,0.17-0.81,0.52c-0.4,0.35-0.97,0.93-1.7,1.74
			c-0.73,0.81-1.1,1.84-1.1,3.07c0,2.17,1.42,3.26,4.25,3.26c0.28,0,0.7,0,1.24,0s1.05-0.05,1.52-0.15
			c-1.18,1.53-2.46,3.23-3.86,5.11c-1.39,1.87-2.09,3.18-2.09,3.92c0,0.79,0.34,1.52,1.03,2.18c0.68,0.67,1.4,1,2.16,1
			c0.61,0,1.2-0.27,1.77-0.81c0.57-0.55,1.33-1.58,2.3-3.09c0.97-1.5,2.04-2.93,3.22-4.27c1.18-1.34,2.62-2.98,4.32-4.91
			c2.78-0.7,5.06-1.17,6.83-1.42c1.77-0.25,3.79-0.37,6.05-0.37c-0.99,1.94-1.99,3.98-3.01,6.14c-1.01,2.15-1.52,4.04-1.52,5.68
			c0,0.69,0.17,1.28,0.5,1.79c0.33,0.49,0.75,0.74,1.27,0.74c0.24,0,1.38-0.37,3.43-1.11c2.05-0.75,3.41-1.2,4.07-1.34
			c-0.09-0.44-0.25-1.06-0.46-1.86c-0.21-0.79-0.32-1.57-0.32-2.31c0-1.18,0.32-2.34,0.96-3.45c0.64-1.12,1.57-2.54,2.8-4.28h2.34
			c1.09,0,2.67,0.2,4.74,0.59c1.46-2.32,2.72-4.08,3.79-5.29c1.06-1.21,2.63-2.7,4.71-4.48
			C134.13,225.07,132.88,224.56,131.93,224.39z"/>
		<path d="M462.92,136.99l-0.61,0.02C462.78,138.09,462.09,136.95,462.92,136.99z"/>
		<path d="M592.27,101.36c-1.02-8.24-3.47-11.74-11.45-13.08c-6.16-1.03-15.36-1.37-21.71-1.26l-1.65-4.8l-0.41-1.92
			c-2.12-11.06-7.02-24.41-12.91-30.7c-1.79-3.39-10.4-6.8-23.2-8c-11.28-1.6-125.26,0.51-140.57,0.48l-14.76,0.02v5.07H231.76
			v-5.31l-0.47,0c-1.96,0.06-3.18,0.05-4.02,0.2H80.31c-0.02,0.01-0.05,0.01-0.07,0.01c-1.06,0.24-2.07,0.59-3.08,0.98
			c-0.1,0.05-0.21,0.09-0.31,0.14c-0.25,0.12-0.5,0.24-0.75,0.37c-0.49,0.25-0.97,0.52-1.43,0.81c-0.23,0.14-0.45,0.29-0.67,0.44
			c-0.06,0.04-0.13,0.09-0.19,0.14c-0.02,0.02-0.04,0.04-0.07,0.06c-0.14,0.13-0.35,0.27-0.46,0.37c-0.18,0.16-0.36,0.33-0.53,0.5
			c-0.28,0.27-0.59,0.47-0.92,0.59c-1.18,1.27-2.26,2.78-2.86,4.51c-0.48,1.38-0.83,2.78-1.08,4.1c-0.27-0.02-0.54-0.01-0.81-0.04
			c-0.06,1.29-0.11,2.55-0.17,3.72c-0.42,8.03-0.47,16.29-0.71,24.36c-0.45,15.25,0.4,33.56-1.14,48.48
			c-0.65,5.13-0.98,12.8,0.52,17.23l5.35,1.45l-0.16,4.85c-0.43-0.02-0.85-0.05-1.24-0.09c-2.23-0.28-3.07-1.95-3.07-1.95
			l-2.06-1.88l0.02,15.45l6,1.18l43.04,4.85l44.38-0.04c-0.66-2.08-1.02-4.3-1.02-6.6c0-12.04,9.76-21.8,21.8-21.8
			s21.8,9.76,21.8,21.8c0,1.63-0.19,3.21-0.53,4.74c1.28,0.74,3.78,1.26,8.4,1.71c-0.63-2.04-0.97-4.2-0.97-6.44
			c0-12.04,9.76-21.8,21.8-21.8s21.8,9.76,21.8,21.8c0,2.79-0.54,5.45-1.5,7.9l11.55,0.77l12.33-0.01l43.03,0.04
			c0,0,127.84,0.45,134.4,0.4l1.19,2.57c3.17-0.99,2.97-0.2,3.96-2.18c-2.07-3.34-2.64-5.28-2.64-9.5c0-12.04,9.76-21.8,21.8-21.8
			c12.04,0,21.8,9.76,21.8,21.8c0,2.99-0.61,5.84-1.7,8.44l10.5,0.19l7.98-0.11l2.18,0.05l25.03-0.02l13.36-0.18l1.92,0.26
			l-0.35-15.12l0.2-1.3l-0.22-18.82l4.21-0.03l0.65,13.15c0,0-0.4,18.61-0.59,20.39c-0.03,0.25-0.08,0.4-0.12,0.6l-0.73,1.36
			l3.92-0.51c0,0,1.88-5.8,2.28-12.53c0.4-6.73,0.2-13.46-0.59-16.43c-0.48-1.82-0.89-4.67-1.14-6.61l0.07-0.35
			c-0.45-8.01-0.18-26.03-2.68-32.32l-1.54-14.33l12.05-0.31l2.48,3.62c0.94,2.7,2.53,4.88,3.48,8.32c1.33,4.85,0.02,7.15,4.52,8.04
			c1.61-2.34,1-2.32,0.85-5.58l-0.34-9.45c0.14-0.07,0.33-0.14,0.55-0.19c0.06-0.01,0.11-0.03,0.18-0.03c0.26-0.04,0.54-0.05,0.9,0
			c0.26,4.42,3.41,9.77,3.29,15.15c1,2.24-2.07,2.61,4.51,1.77C593.64,109.76,592.94,104.42,592.27,101.36z M66.55,145.84
			c-2.04-2.67-2.21-8.45,0-10.92c1.6,1.63,0.61-0.88,1.27,1.91C68.51,139.78,68.41,143.75,66.55,145.84z M114.89,123.56l-36.68,0.2
			c-0.6-1.11-0.42-0.79-0.51-2.45L77.79,109l37.27,0.19l0,8.06L114.89,123.56z M146.09,136.33h-11.77v-9.27h11.77V136.33z
			 M168.55,136.33h-11.77v-9.27h11.77V136.33z M191.98,136.33h-11.77v-9.27h11.77V136.33z M215.72,136.33h-11.77v-9.27h11.77V136.33
			z M226.07,82.17H80.28c-1.61,0.69-3.9-0.07-3.9-2.35V56.84c0-0.63,0.22-1.11,0.51-1.51c0.1-0.22,0.19-0.44,0.33-0.64
			c0.6-0.9,1.38-1.6,2.31-2.15c1.41-0.85,3.07-1.36,4.68-1.68c0.49-0.1,0.94-0.06,1.39,0.05c1.37-0.23,2.85-0.38,4.58-0.38h135.91
			V82.17z M272.91,136.04c-1.44-1.25-1.82-1.01-4.2-2.89c-1.79-1.41-2.99-2.41-5.04-3.89l-20.63-15.14
			c-1.12-0.84-2.67-1.96-4.16-3.04h34.04V136.04z M293.63,137.43c-0.05,0.21-0.1,0.37-0.16,0.54h-16.68v-26.88h16.84V137.43z
			 M298.48,82.17h-68.85v-9.58h68.85V82.17z M298.48,70.1c-0.01,0-0.02,0-0.03,0h-65.38c-1.22-0.09-2.27-0.18-3.01-0.29v-4.67
			c0.27-0.08,0.6-0.15,1.01-0.22h67.41V70.1z M298.48,61.21h-68.43V50.63h68.43V61.21z M301.38,50.63h64.22v10.58h-64.22v-7.6
			c0,0,0,0,0,0V50.63z M365.6,64.92v5.18h-61.63c-1.07-0.08-1.98-0.17-2.58-0.26v-4.69c0.28-0.08,0.61-0.16,1.05-0.23H365.6z
			 M301.38,72.59h64.22v9.58h-63.98v-2.93l-0.24-0.02V72.59z M503.1,137.66H301.44v-27.05H503.1V137.66z M377.9,81.56
			c0,0-0.71-33.07-0.71-32.71l144.14,0.35c0,0,14.4,2.4,20.5,16c4.49,10.02,3.91,15.65,3.91,15.65L377.9,81.56z M538.16,138.41
			l-20.64-0.22l0.38-30.01l20.56-0.05L538.16,138.41z M540.5,136.75l-0.04-27.95c4.01-1.56,6.69-0.86,11.15-1.02l1.31,29.21
			L540.5,136.75z M555.14,105.97l-1.57-11.26c3.36,0.97,3.27-0.39,4.06,4.21c0.36,2.07,0.66,5.32,0.69,7.3L555.14,105.97z"/>
	</g>
</g>
</svg>
