<?xml version="1.0" encoding="iso-8859-1"?>
<!-- Uploaded to: SVG Repo, www.svgrepo.com, Generator: SVG Repo Mixer Tools -->
<svg fill="#000000" height="800px" width="800px" version="1.1" id="Layer_1" xmlns="http://www.w3.org/2000/svg" xmlns:xlink="http://www.w3.org/1999/xlink" 
	 viewBox="0 0 512 512" xml:space="preserve">
<g>
	<g>
		<path d="M503.467,362.667h-8.533V251.733h8.533c4.71,0,8.533-3.823,8.533-8.533s-3.823-8.533-8.533-8.533h-8.533V166.4
			c0-28.237-22.963-51.2-51.2-51.2H76.8c-14.106,0-32.905,6.997-42.308,40.218l-25.6,85.333c-0.777,2.586-0.282,5.376,1.331,7.543
			c1.604,2.167,4.147,3.439,6.844,3.439h15.531l-6.272,37.615L3.797,304.367c-2.372,1.587-3.797,4.25-3.797,7.1V371.2
			c0,4.71,3.823,8.533,8.533,8.533h47.411c5.922,10.155,16.811,17.067,29.389,17.067c12.578,0,23.467-6.912,29.389-17.067h231.364
			c5.922,10.155,16.811,17.067,29.389,17.067s23.467-6.912,29.389-17.067h98.603c4.71,0,8.533-3.823,8.533-8.533
			S508.177,362.667,503.467,362.667z M49.016,166.4H102.4v34.133H38.775L49.016,166.4z M85.333,379.733
			c-9.412,0-17.067-7.654-17.067-17.067S75.921,345.6,85.333,345.6c9.412,0,17.067,7.654,17.067,17.067
			S94.746,379.733,85.333,379.733z M375.467,379.733c-9.412,0-17.067-7.654-17.067-17.067s7.654-17.067,17.067-17.067
			c9.412,0,17.067,7.654,17.067,17.067S384.879,379.733,375.467,379.733z M435.2,362.667h-25.6
			c0-18.825-15.309-34.133-34.133-34.133c-18.825,0-34.133,15.309-34.133,34.133H119.467c0-18.825-15.309-34.133-34.133-34.133
			c-18.825,0-34.133,15.309-34.133,34.133H17.067V345.6H25.6c4.71,0,8.533-3.823,8.533-8.533c0-4.71-3.823-8.533-8.533-8.533h-8.533
			v-12.501l19.652-13.099H384c4.71,0,8.533-3.823,8.533-8.533v-42.667H435.2V362.667z M44.203,285.867l5.692-34.133H102.4v34.133
			H44.203z M119.467,285.867v-34.133h51.2v34.133H119.467z M187.733,285.867v-34.133h51.2v34.133H187.733z M256,285.867v-34.133
			h51.2v34.133H256z M324.267,285.867v-34.133h51.2v34.133H324.267z M477.867,362.667h-25.6V251.733h25.6V362.667z M477.867,234.667
			h-34.133H28.535l5.146-17.161c0.162,0.008,0.29,0.094,0.452,0.094h418.133c4.71,0,8.533-3.823,8.533-8.533v-34.133
			c0-14.114-11.486-25.6-25.6-25.6H54.844c7.868-16.998,18.176-17.067,21.956-17.067h366.933c18.825,0,34.133,15.309,34.133,34.133
			V234.667z M119.467,200.533V166.4h51.2v34.133H119.467z M187.733,200.533V166.4h51.2v34.133H187.733z M256,200.533V166.4h51.2
			v34.133H256z M324.267,200.533V166.4h51.2v34.133H324.267z M392.533,200.533V166.4H435.2c4.702,0,8.533,3.831,8.533,8.533v25.6
			H392.533z"/>
	</g>
</g>
</svg>